<svg width="229" height="25" viewBox="0 0 229 25" fill="none" xmlns="http://www.w3.org/2000/svg">
<path d="M134.245 7.93927H140.205V23.7059H143.821V7.93927H149.476V7.08903H134.245V7.93927ZM115.631 6.13147C115.631 3.8614 118.396 1.59133 122.243 1.59133C126.09 1.59133 127.625 2.51587 129.243 4.32367L130.82 3.67154C129.507 2.21044 127.278 0.675049 122.127 0.675049C115.895 0.675049 111.669 3.44041 111.669 7.17158C111.669 14.5514 127.939 11.5136 127.939 18.4806C127.939 21.2873 125.017 23.2106 120.361 23.2106C117.208 23.2106 114.822 21.8651 113.476 20.1729L111.594 20.9819C113.361 23.0208 116.399 24.325 121.096 24.325C127.443 24.325 132.132 21.246 132.132 17.5231C132.132 9.98646 115.639 13.0242 115.639 6.13973L115.631 6.13147ZM170.418 11.8933C170.418 8.69871 166.728 7.1303 159.959 7.1303H153.842V23.7059H157.458V8.16215H160.496C164.689 8.16215 166.802 9.50768 166.802 11.5466C166.802 12.9334 166.497 15.0467 160.496 15.0467H158.762L166.992 23.6977H171.029L163.459 15.8886C166.959 15.7318 170.418 14.5431 170.418 11.8851V11.8933ZM213.673 7.08903V7.93927H219.633V23.7059H223.249V7.93927H228.903V7.08903H213.673ZM175.495 9.66453V21.5845C175.495 24.2012 174.611 23.6977 180.299 23.6977H190.411V22.8474H180.646C178.764 22.8474 179.11 23.0786 179.11 21.5432V15.4676H188.339V14.6174H179.11V9.42514C179.11 7.69163 178.574 7.96404 181.611 7.96404H190.609V7.12205H179.919C174.653 7.12205 175.495 6.6185 175.495 9.65627V9.66453ZM195.372 9.66453V21.5845C195.372 24.2012 194.489 23.6977 200.177 23.6977H210.289V22.8474H200.523C198.641 22.8474 198.988 23.0786 198.988 21.5432V15.4676H208.217V14.6174H198.988V9.42514C198.988 7.69163 198.451 7.96404 201.489 7.96404H210.487V7.12205H199.797C194.53 7.12205 195.372 6.6185 195.372 9.65627V9.66453ZM100.475 21.2047V7.05601H96.8594V21.667C96.8594 24.0526 96.3559 23.7059 100.203 23.7059H108.383V22.8557H102.745C100.095 22.8557 100.475 23.1611 100.475 21.2047ZM41.4697 1.2859L30.0533 19.1658L19.058 1.2859H14.9058L20.7502 10.3992L15.4836 18.7448L4.32314 1.2859H0.0966797L14.1711 24.3168H14.2867L21.8233 12.207L28.972 24.3168H29.0875L43.6242 1.2859H41.4697ZM53.6373 23.2437C49.2127 23.2437 45.5641 20.5526 45.5641 15.4016C45.5641 10.2506 49.2127 7.59257 53.6373 7.59257C58.0619 7.59257 61.6775 10.2836 61.6775 15.4016C61.6775 20.5196 57.9876 23.2437 53.6373 23.2437ZM53.6373 6.74233C45.9108 6.74233 41.9485 10.8532 41.9485 15.3934C41.9485 19.9335 47.1408 24.0857 53.6373 24.0857C61.3308 24.0857 65.2848 19.9748 65.2848 15.3934C65.2848 10.8119 60.0926 6.74233 53.6373 6.74233ZM79.8215 23.2437C75.397 23.2437 71.7483 20.5526 71.7483 15.4016C71.7483 10.2506 75.397 7.59257 79.8215 7.59257C84.2461 7.59257 87.8617 10.2836 87.8617 15.4016C87.8617 20.5196 84.1718 23.2437 79.8215 23.2437ZM79.8215 6.74233C72.095 6.74233 68.1327 10.8532 68.1327 15.3934C68.1327 19.9335 73.325 24.0857 79.8215 24.0857C87.515 24.0857 91.4773 19.9748 91.4773 15.3934C91.4773 10.8119 86.285 6.74233 79.8215 6.74233Z" fill="white"/>
</svg>
