<svg width="17" height="19" viewBox="0 0 17 19" fill="none" xmlns="http://www.w3.org/2000/svg">
<g clip-path="url(#clip0_998_8695)">
<path d="M13.8125 7.90625C13.8125 9.43027 13.3178 10.8381 12.4844 11.9803L16.6879 16.1871C17.1029 16.6021 17.1029 17.2762 16.6879 17.6912C16.2729 18.1063 15.5988 18.1063 15.1838 17.6912L10.9803 13.4844C9.83809 14.3211 8.43027 14.8125 6.90625 14.8125C3.09121 14.8125 0 11.7213 0 7.90625C0 4.09121 3.09121 1 6.90625 1C10.7213 1 13.8125 4.09121 13.8125 7.90625ZM6.90625 12.6875C7.53413 12.6875 8.15587 12.5638 8.73596 12.3235C9.31604 12.0833 9.84312 11.7311 10.2871 11.2871C10.7311 10.8431 11.0833 10.316 11.3235 9.73596C11.5638 9.15587 11.6875 8.53413 11.6875 7.90625C11.6875 7.27837 11.5638 6.65663 11.3235 6.07654C11.0833 5.49646 10.7311 4.96938 10.2871 4.5254C9.84312 4.08142 9.31604 3.72923 8.73596 3.48895C8.15587 3.24867 7.53413 3.125 6.90625 3.125C6.27837 3.125 5.65663 3.24867 5.07654 3.48895C4.49646 3.72923 3.96938 4.08142 3.5254 4.5254C3.08142 4.96938 2.72923 5.49646 2.48895 6.07654C2.24867 6.65663 2.125 7.27837 2.125 7.90625C2.125 8.53413 2.24867 9.15587 2.48895 9.73596C2.72923 10.316 3.08142 10.8431 3.5254 11.2871C3.96938 11.7311 4.49646 12.0833 5.07654 12.3235C5.65663 12.5638 6.27837 12.6875 6.90625 12.6875Z" fill="white"/>
</g>
<defs>
<clipPath id="clip0_998_8695">
<rect width="17" height="18.5" fill="white" transform="translate(0 0.25)"/>
</clipPath>
</defs>
</svg>
