<svg width="18" height="11" viewBox="0 0 18 11" fill="none" xmlns="http://www.w3.org/2000/svg">
<path fill-rule="evenodd" clip-rule="evenodd" d="M17.5871 0.878832C17.7123 0.46163 17.5871 0.155029 16.9917 0.155029H15.0225C14.5217 0.155029 14.2909 0.41983 14.1659 0.712031C14.1659 0.712031 13.1643 3.15284 11.7456 4.73845C11.2868 5.19745 11.0782 5.34365 10.8276 5.34365C10.7026 5.34365 10.5214 5.19745 10.5214 4.78045V0.878832C10.5214 0.37823 10.376 0.155029 9.95884 0.155029H6.86403C6.55123 0.155029 6.36282 0.38743 6.36282 0.607831C6.36282 1.08243 7.07223 1.19203 7.14543 2.52724V5.42705C7.14543 6.06285 7.03063 6.17845 6.78023 6.17845C6.11282 6.17845 4.48882 3.72644 3.52561 0.920832C3.33681 0.37543 3.14761 0.155229 2.64441 0.155229H0.675203C0.1124 0.155029 0 0.41983 0 0.711832C0 1.23343 0.667403 3.82044 3.10841 7.24186C4.73562 9.57827 7.02823 10.8451 9.11464 10.8451C10.3662 10.8451 10.5212 10.5637 10.5212 10.0791V8.31326C10.5212 7.75046 10.6398 7.63826 11.0362 7.63826C11.3282 7.63826 11.8288 7.78406 12.9973 8.91066C14.3325 10.2459 14.5525 10.8449 15.3037 10.8449H17.2729C17.8353 10.8449 18.1167 10.5635 17.9545 10.0085C17.7767 9.45507 17.1393 8.65226 16.2935 7.70086C15.8345 7.15846 15.1459 6.57425 14.9373 6.28205C14.6451 5.90665 14.7287 5.73985 14.9373 5.40585C14.9373 5.40585 17.3369 2.02624 17.5871 0.878832Z" fill="white"/>
</svg>
