<svg width="0" height="0" class="sprite-hidden">
  <symbol xmlns="http://www.w3.org/2000/svg" viewBox="0 0 38 37" id="arrowcircle">
    <path d="M2.83366 18.4987C2.83366 27.0131 9.73593 33.9154 18.2503 33.9154C26.7647 33.9154 33.667 27.0131 33.667 18.4987C33.667 9.98431 26.7647 3.08203 18.2503 3.08203C9.73593 3.08203 2.83366 9.98431 2.83366 18.4987Z" stroke-width="1.5"></path>
    <path d="M15.9378 12.332L22.1045 18.4987L15.9378 24.6654" stroke-width="1.5" stroke-linecap="round" stroke-linejoin="round"></path>
  </symbol>
  <symbol xmlns="http://www.w3.org/2000/svg" viewBox="0 0 60 60" id="arrowleft">
    <path d="M30 13L13 30L30 47" stroke="#FFFBFB" stroke-width="1.5" stroke-linecap="round" stroke-linejoin="round"></path>
  </symbol>
  <symbol xmlns="http://www.w3.org/2000/svg" viewBox="0 0 60 60" id="arrowright">
    <path d="M30 13L47 30L30 47" stroke="#FFFBFB" stroke-width="1.5" stroke-linecap="round" stroke-linejoin="round"></path>
  </symbol>
  <symbol xmlns="http://www.w3.org/2000/svg" viewBox="0 0 229 25" id="logosvg">
    <path d="M134.245 7.93927H140.205V23.7059H143.821V7.93927H149.476V7.08903H134.245V7.93927ZM115.631 6.13147C115.631 3.8614 118.396 1.59133 122.243 1.59133C126.09 1.59133 127.625 2.51587 129.243 4.32367L130.82 3.67154C129.507 2.21044 127.278 0.675049 122.127 0.675049C115.895 0.675049 111.669 3.44041 111.669 7.17158C111.669 14.5514 127.939 11.5136 127.939 18.4806C127.939 21.2873 125.017 23.2106 120.361 23.2106C117.208 23.2106 114.822 21.8651 113.476 20.1729L111.594 20.9819C113.361 23.0208 116.399 24.325 121.096 24.325C127.443 24.325 132.132 21.246 132.132 17.5231C132.132 9.98646 115.639 13.0242 115.639 6.13973L115.631 6.13147ZM170.418 11.8933C170.418 8.69871 166.728 7.1303 159.959 7.1303H153.842V23.7059H157.458V8.16215H160.496C164.689 8.16215 166.802 9.50768 166.802 11.5466C166.802 12.9334 166.497 15.0467 160.496 15.0467H158.762L166.992 23.6977H171.029L163.459 15.8886C166.959 15.7318 170.418 14.5431 170.418 11.8851V11.8933ZM213.673 7.08903V7.93927H219.633V23.7059H223.249V7.93927H228.903V7.08903H213.673ZM175.495 9.66453V21.5845C175.495 24.2012 174.611 23.6977 180.299 23.6977H190.411V22.8474H180.646C178.764 22.8474 179.11 23.0786 179.11 21.5432V15.4676H188.339V14.6174H179.11V9.42514C179.11 7.69163 178.574 7.96404 181.611 7.96404H190.609V7.12205H179.919C174.653 7.12205 175.495 6.6185 175.495 9.65627V9.66453ZM195.372 9.66453V21.5845C195.372 24.2012 194.489 23.6977 200.177 23.6977H210.289V22.8474H200.523C198.641 22.8474 198.988 23.0786 198.988 21.5432V15.4676H208.217V14.6174H198.988V9.42514C198.988 7.69163 198.451 7.96404 201.489 7.96404H210.487V7.12205H199.797C194.53 7.12205 195.372 6.6185 195.372 9.65627V9.66453ZM100.475 21.2047V7.05601H96.8594V21.667C96.8594 24.0526 96.3559 23.7059 100.203 23.7059H108.383V22.8557H102.745C100.095 22.8557 100.475 23.1611 100.475 21.2047ZM41.4697 1.2859L30.0533 19.1658L19.058 1.2859H14.9058L20.7502 10.3992L15.4836 18.7448L4.32314 1.2859H0.0966797L14.1711 24.3168H14.2867L21.8233 12.207L28.972 24.3168H29.0875L43.6242 1.2859H41.4697ZM53.6373 23.2437C49.2127 23.2437 45.5641 20.5526 45.5641 15.4016C45.5641 10.2506 49.2127 7.59257 53.6373 7.59257C58.0619 7.59257 61.6775 10.2836 61.6775 15.4016C61.6775 20.5196 57.9876 23.2437 53.6373 23.2437ZM53.6373 6.74233C45.9108 6.74233 41.9485 10.8532 41.9485 15.3934C41.9485 19.9335 47.1408 24.0857 53.6373 24.0857C61.3308 24.0857 65.2848 19.9748 65.2848 15.3934C65.2848 10.8119 60.0926 6.74233 53.6373 6.74233ZM79.8215 23.2437C75.397 23.2437 71.7483 20.5526 71.7483 15.4016C71.7483 10.2506 75.397 7.59257 79.8215 7.59257C84.2461 7.59257 87.8617 10.2836 87.8617 15.4016C87.8617 20.5196 84.1718 23.2437 79.8215 23.2437ZM79.8215 6.74233C72.095 6.74233 68.1327 10.8532 68.1327 15.3934C68.1327 19.9335 73.325 24.0857 79.8215 24.0857C87.515 24.0857 91.4773 19.9748 91.4773 15.3934C91.4773 10.8119 86.285 6.74233 79.8215 6.74233Z"></path>
  </symbol>
  <symbol xmlns="http://www.w3.org/2000/svg" viewBox="0 0 17 19" id="magnifying-glass">
    <g clip-path="url(#clip0_998_8695)">
      <path d="M13.8125 7.90625C13.8125 9.43027 13.3178 10.8381 12.4844 11.9803L16.6879 16.1871C17.1029 16.6021 17.1029 17.2762 16.6879 17.6912C16.2729 18.1063 15.5988 18.1063 15.1838 17.6912L10.9803 13.4844C9.83809 14.3211 8.43027 14.8125 6.90625 14.8125C3.09121 14.8125 0 11.7213 0 7.90625C0 4.09121 3.09121 1 6.90625 1C10.7213 1 13.8125 4.09121 13.8125 7.90625ZM6.90625 12.6875C7.53413 12.6875 8.15587 12.5638 8.73596 12.3235C9.31604 12.0833 9.84312 11.7311 10.2871 11.2871C10.7311 10.8431 11.0833 10.316 11.3235 9.73596C11.5638 9.15587 11.6875 8.53413 11.6875 7.90625C11.6875 7.27837 11.5638 6.65663 11.3235 6.07654C11.0833 5.49646 10.7311 4.96938 10.2871 4.5254C9.84312 4.08142 9.31604 3.72923 8.73596 3.48895C8.15587 3.24867 7.53413 3.125 6.90625 3.125C6.27837 3.125 5.65663 3.24867 5.07654 3.48895C4.49646 3.72923 3.96938 4.08142 3.5254 4.5254C3.08142 4.96938 2.72923 5.49646 2.48895 6.07654C2.24867 6.65663 2.125 7.27837 2.125 7.90625C2.125 8.53413 2.24867 9.15587 2.48895 9.73596C2.72923 10.316 3.08142 10.8431 3.5254 11.2871C3.96938 11.7311 4.49646 12.0833 5.07654 12.3235C5.65663 12.5638 6.27837 12.6875 6.90625 12.6875Z"></path>
    </g>
    <defs>
      <clipPath id="clip0_998_8695">
        <rect width="17" height="18.5" fill="white" transform="translate(0 0.25)"></rect>
      </clipPath>
    </defs>
  </symbol>
  <symbol xmlns="http://www.w3.org/2000/svg" viewBox="0 0 23 21" id="Star">
    <path d="M11.4868 0L14.8047 6.7228L22.2237 7.80085L16.8552 13.0338L18.1226 20.4229L11.4868 16.9342L4.85096 20.4229L6.11829 13.0338L0.749813 7.80085L8.16886 6.7228L11.4868 0Z"></path>
  </symbol>
  <symbol xmlns="http://www.w3.org/2000/svg" viewBox="0 0 18 11" id="vk">
    <path fill-rule="evenodd" clip-rule="evenodd" d="M17.5871 0.878832C17.7123 0.46163 17.5871 0.155029 16.9917 0.155029H15.0225C14.5217 0.155029 14.2909 0.41983 14.1659 0.712031C14.1659 0.712031 13.1643 3.15284 11.7456 4.73845C11.2868 5.19745 11.0782 5.34365 10.8276 5.34365C10.7026 5.34365 10.5214 5.19745 10.5214 4.78045V0.878832C10.5214 0.37823 10.376 0.155029 9.95884 0.155029H6.86403C6.55123 0.155029 6.36282 0.38743 6.36282 0.607831C6.36282 1.08243 7.07223 1.19203 7.14543 2.52724V5.42705C7.14543 6.06285 7.03063 6.17845 6.78023 6.17845C6.11282 6.17845 4.48882 3.72644 3.52561 0.920832C3.33681 0.37543 3.14761 0.155229 2.64441 0.155229H0.675203C0.1124 0.155029 0 0.41983 0 0.711832C0 1.23343 0.667403 3.82044 3.10841 7.24186C4.73562 9.57827 7.02823 10.8451 9.11464 10.8451C10.3662 10.8451 10.5212 10.5637 10.5212 10.0791V8.31326C10.5212 7.75046 10.6398 7.63826 11.0362 7.63826C11.3282 7.63826 11.8288 7.78406 12.9973 8.91066C14.3325 10.2459 14.5525 10.8449 15.3037 10.8449H17.2729C17.8353 10.8449 18.1167 10.5635 17.9545 10.0085C17.7767 9.45507 17.1393 8.65226 16.2935 7.70086C15.8345 7.15846 15.1459 6.57425 14.9373 6.28205C14.6451 5.90665 14.7287 5.73985 14.9373 5.40585C14.9373 5.40585 17.3369 2.02624 17.5871 0.878832Z"></path>
  </symbol>
  <symbol xmlns="http://www.w3.org/2000/svg" viewBox="0 0 1380 143" id="logo">
    <path d="M809.091 43.8596H845.037V138.953H866.844V43.8596H900.948V38.7315H809.091V43.8596ZM696.821 32.9562C696.821 19.2647 713.5 5.57325 736.7 5.57325C759.901 5.57325 769.162 11.1494 778.92 22.0528L788.429 18.1196C780.513 9.30728 767.071 0.046875 736.003 0.046875C698.414 0.046875 672.923 16.7256 672.923 39.2294C672.923 83.7391 771.053 65.4174 771.053 107.438C771.053 124.365 753.429 135.966 725.349 135.966C706.33 135.966 691.942 127.85 683.826 117.644L672.475 122.523C683.129 134.821 701.451 142.687 729.78 142.687C768.066 142.687 796.345 124.116 796.345 101.662C796.345 56.2068 696.871 74.5284 696.871 33.006L696.821 32.9562ZM1027.26 67.7076C1027.26 48.44 1005 38.9804 964.178 38.9804H927.286V138.953H949.092V45.2038H967.414C992.706 45.2038 1005.45 53.3191 1005.45 65.6165C1005.45 73.9808 1003.61 86.7263 967.414 86.7263H956.959L1006.6 138.903H1030.94L985.288 91.8046C1006.4 90.8586 1027.26 83.6893 1027.26 67.6578V67.7076ZM1288.14 38.7315V43.8596H1324.09V138.953H1345.9V43.8596H1380V38.7315H1288.14ZM1057.88 54.2651V126.158C1057.88 141.94 1052.55 138.903 1086.85 138.903H1147.84V133.775H1088.94C1077.59 133.775 1079.68 135.169 1079.68 125.909V89.2654H1135.35V84.1374H1079.68V52.8212C1079.68 42.3659 1076.45 44.0089 1094.77 44.0089H1149.04V38.9306H1084.56C1052.8 38.9306 1057.88 35.8936 1057.88 54.2153V54.2651ZM1177.76 54.2651V126.158C1177.76 141.94 1172.44 138.903 1206.74 138.903H1267.73V133.775H1208.83C1197.48 133.775 1199.57 135.169 1199.57 125.909V89.2654H1255.23V84.1374H1199.57V52.8212C1199.57 42.3659 1196.34 44.0089 1214.66 44.0089H1268.92V38.9306H1204.45C1172.69 38.9306 1177.76 35.8936 1177.76 54.2153V54.2651ZM605.412 123.867V38.5323H583.605V126.656C583.605 141.044 580.568 138.953 603.769 138.953H653.108V133.825H619.103C603.121 133.825 605.412 135.667 605.412 123.867ZM249.533 3.73112L180.678 111.57L114.361 3.73112H89.3181L124.567 58.6961L92.8032 109.031L25.491 3.73112H0L84.8871 142.637H85.5841L131.04 69.5995L174.155 142.637H174.852L262.528 3.73112H249.533ZM322.919 136.165C296.234 136.165 274.228 119.934 274.228 88.8671C274.228 57.8 296.234 41.7685 322.919 41.7685C349.605 41.7685 371.412 57.9991 371.412 88.8671C371.412 119.735 349.157 136.165 322.919 136.165ZM322.919 36.6404C276.319 36.6404 252.421 61.4344 252.421 88.8173C252.421 116.2 283.737 141.243 322.919 141.243C369.321 141.243 393.169 116.449 393.169 88.8173C393.169 61.1855 361.853 36.6404 322.919 36.6404ZM480.844 136.165C454.158 136.165 432.152 119.934 432.152 88.8671C432.152 57.8 454.158 41.7685 480.844 41.7685C507.53 41.7685 529.337 57.9991 529.337 88.8671C529.337 119.735 507.082 136.165 480.844 136.165ZM480.844 36.6404C434.243 36.6404 410.346 61.4344 410.346 88.8173C410.346 116.2 441.662 141.243 480.844 141.243C527.246 141.243 551.144 116.449 551.144 88.8173C551.144 61.1855 519.828 36.6404 480.844 36.6404Z"/>
  </symbol>
  <symbol xmlns="http://www.w3.org/2000/svg" viewBox="0 0 14 14" id="arrow">
    <g clip-path="url(#clip0_998_8683)">
      <path d="M2.1875 7H11.8125" stroke="#1C1C1C" stroke-linecap="round" stroke-linejoin="round"></path>
      <path d="M7.875 3.0625L11.8125 7L7.875 10.9375" stroke="#1C1C1C" stroke-linecap="round" stroke-linejoin="round"></path>
    </g>
    <defs>
      <clipPath id="clip0_998_8683">
        <rect width="14" height="14" fill="white"></rect>
      </clipPath>
    </defs>
  </symbol>
</svg>